<?xml version="1.0" encoding="UTF-8"?>
<svg width="800" height="600" viewBox="0 0 800 600" xmlns="http://www.w3.org/2000/svg" xmlns:xlink="http://www.w3.org/1999/xlink" aria-hidden="true">
  <defs>
    <linearGradient id="g1" x1="0" x2="1" y1="0" y2="1">
      <stop offset="0%" stop-color="#0f4ca8" stop-opacity="0.95"/>
      <stop offset="100%" stop-color="#0b8bd7" stop-opacity="0.95"/>
    </linearGradient>
    <filter id="s" x="-20%" y="-20%" width="140%" height="140%">
      <feDropShadow dx="0" dy="18" stdDeviation="30" flood-color="#062645" flood-opacity="0.12"/>
    </filter>
  </defs>

  <g transform="translate(40,40)">
    <g filter="url(#s)">
      <path d="M420 80 C 520 60 620 110 650 200 C 670 260 660 320 620 360 C 560 420 420 430 360 460 C 300 490 210 520 140 480 C 80 445 50 380 70 320 C 95 245 150 200 220 190 C 270 184 310 160 360 150 C 378 147 400 142 420 140 Z"
            fill="url(#g1)"/>
    </g>

    <g transform="translate(100,220) scale(0.6)" fill="#ffffff" opacity="0.12">
      <path d="M120 8c10 9 36 24 56 20 30-5 68-24 93-10 18 11 32 48 32 48s-28-11-52-2c-22 8-40 24-59 30-18 6-40 12-61 4-22-8-51-36-63-64-12-27-11-38 4-37 15 1 31 7 50 11z"/>
    </g>

    <g transform="translate(140,120)" fill="#ffffff" opacity="0.08">
      <circle cx="30" cy="30" r="10"/>
      <circle cx="80" cy="20" r="6"/>
      <circle cx="60" cy="70" r="8"/>
    </g>

    <text x="40" y="530" font-family="Segoe UI, Arial" font-size="18" fill="#08345a" opacity="0.6">Illustration: stylized liver — local asset</text>
  </g>
</svg>
